<?xml version="1.0" encoding="UTF-8" standalone="no"?>

<svg
   width="240mm"
   height="240mm"
   viewBox="0 0 240 240"
   version="1.1"
   id="svg1"
   xmlns="http://www.w3.org/2000/svg"
   xmlns:svg="http://www.w3.org/2000/svg">
  <g
     id="taskie-logo">
    <g
       id="t"
       transform="matrix(1.2299847,0,0,1.2299847,-27.59216,-29.360695)"
       style="fill:#00c546;fill-opacity:1;stroke-width:0.327287">
      <path
         d="m 137.54871,170.5932 c -9.41214,9.42095 -18.82438,18.84194 -28.23652,28.26288 h 28.23652 z"
         id="t-top" />
      <path
         d="m 41.144259,41.143742 v 35.098116 h 61.306851 v 61.424672 c 11.71919,-11.65879 23.40832,-23.3492 35.0976,-35.0392 V 76.241858 h 26.37203 c 5.76798,-5.771714 11.53588,-11.543508 17.30386,-17.315222 l 17.31574,17.315222 h 0.31574 V 41.143742 h -61.30737 -35.0976 z"
         id="t-bottom" />
    </g>
    <path
       id="check"
       style="font-variation-settings:normal;vector-effect:none;fill:#006d49;fill-opacity:1;stroke-width:9.67998;stroke-linecap:butt;stroke-linejoin:miter;stroke-miterlimit:4;stroke-dasharray:none;stroke-dashoffset:0;stroke-opacity:1;-inkscape-stroke:none;stop-color:#000000"
       d="M 194.85009,49.995734 C 159.40925,85.473384 123.95159,120.93601 88.521283,156.42304 87.0767,158.59248 83.449152,158.19576 82.17437,156.04109 69.679522,143.54546 57.187988,131.04652 44.691067,118.55297 32.912124,130.32791 21.135175,142.10487 9.3602367,153.8838 34.754041,179.30214 60.146205,204.72212 85.540012,230.14046 133.90724,181.71607 182.27253,133.28971 230.63976,84.86532 218.86563,73.087179 207.08947,61.31103 195.31134,49.536892 c -0.15375,0.152947 -0.3075,0.305894 -0.46125,0.458842 z m 19.61249,34.867184 C 171.48759,127.83792 128.51259,170.81291 85.537609,213.78791 65.512721,193.79984 45.487833,173.81179 25.462945,153.82374 c 6.418983,-6.19557 12.837966,-12.39113 19.256949,-18.5867 13.601796,13.44106 27.204435,26.88125 40.805705,40.32284 36.597691,-36.66327 73.193551,-73.32838 109.790531,-109.992348 6.38216,6.431796 12.76431,12.863591 19.14645,19.295386 z" />
  </g>
</svg>
